Coordinates
version=1
nRows=29
nColumns=30
inDegrees=yes

Units are S.I. units (second, meters, Newtons, ...)
Angles are in degrees.

endheader
time	floatyaw	floatroll	floatpitch	floatx	floaty	floatz	pro_sup_l	deviation_l	flexion_l	cmc_flexion_l	cmc_abduction_l	mp_flexion_l	ip_flexion_l	2mcp_flexion_l	2mcp_abduction_l	2pm_flexion_l	2md_flexion_l	3mcp_flexion_l	3mcp_abduction_l	3pm_flexion_l	3md_flexion_l	4mcp_flexion_l	4mcp_abduction_l	4pm_flexion_l	4md_flexion_l	5mcp_flexion_l	5mcp_abduction_l	5pm_flexion_l	5md_flexion_l
0.005000	-160.147433	-5.066637	-73.570646	-0.066602	-0.136142	-0.118149	57.878241	-6.334598	0.259118	22.188271	10.472973	-30.370888	-51.968789	34.619134	15.056069	58.354467	48.651275	47.663401	6.896972	55.556231	39.625864	46.792600	-6.748566	57.785327	49.496841	34.355793	-14.927905	80.439059	61.416380
0.015000	-160.147433	-5.066637	-73.570646	-0.066714	-0.133670	-0.118108	56.323284	-7.023955	-0.145496	21.883406	10.803366	-30.305455	-51.850845	35.281252	15.372849	58.011465	50.130592	48.325849	6.998193	55.167547	39.896070	47.267160	-6.857248	57.434726	50.179674	35.178886	-15.195585	80.603227	61.967223
0.025000	-160.147433	-5.066637	-73.570646	-0.066801	-0.130369	-0.118279	55.192638	-7.544934	-0.664280	21.681767	10.739771	-30.358756	-51.894243	35.937790	15.727246	57.581836	51.980133	49.081810	7.056264	54.758452	40.119257	47.661517	-6.929237	57.107063	50.841870	35.813733	-15.553369	80.351536	62.650558
0.035000	-160.147433	-5.066637	-73.570646	-0.066900	-0.126599	-0.118573	54.482865	-7.896408	-1.189741	21.543716	10.291719	-30.491931	-52.055574	36.567226	16.098711	57.042872	54.263001	49.864603	7.071799	54.341192	40.314519	47.995468	-6.972774	56.752453	51.431384	36.326327	-15.958765	79.696384	63.461543
0.045000	-160.147433	-5.066637	-73.570646	-0.067038	-0.122908	-0.118832	54.064759	-8.101425	-1.577312	21.412495	9.539728	-30.633639	-52.237981	37.142777	16.450971	56.419292	56.894792	50.577954	7.055872	53.947330	40.491095	48.282141	-7.000780	56.346605	51.909206	36.745692	-16.346810	78.831704	64.352910
0.055000	-160.147433	-5.066637	-73.570646	-0.067225	-0.119862	-0.118903	53.732917	-8.200653	-1.717087	21.236883	8.618186	-30.712133	-52.334329	37.650237	16.749049	55.774679	59.636391	51.138201	7.026815	53.618154	40.644088	48.521417	-7.026965	55.914779	52.262650	37.069180	-16.653856	78.063455	65.237207
0.065000	-160.147433	-5.066637	-73.570646	-0.067433	-0.117862	-0.118707	53.290530	-8.238329	-1.585016	20.993050	7.678733	-30.681845	-52.270477	38.083700	16.970898	55.179985	62.157748	51.499568	7.002066	53.381575	40.754924	48.702016	-7.060986	55.516845	52.504673	37.270131	-16.838861	77.683683	66.003172
0.075000	-160.147433	-5.066637	-73.570646	-0.067603	-0.117022	-0.118269	52.631297	-8.247933	-1.248032	20.693356	6.841573	-30.533871	-52.028652	38.425615	17.111740	54.681876	64.149409	51.654625	6.990755	53.235654	40.801292	48.812198	-7.105269	55.211197	52.666534	37.306335	-16.895067	77.848653	66.550291
0.085000	-160.147433	-5.066637	-73.570646	-0.067667	-0.117156	-0.117701	51.776656	-8.245624	-0.824193	20.377625	6.158703	-30.288323	-51.642077	38.633241	17.181869	54.289289	65.427269	51.617497	6.991897	53.151865	40.773242	48.849417	-7.155279	55.024640	52.787605	37.133255	-16.848061	78.521853	66.828384
0.095000	-160.147433	-5.066637	-73.570646	-0.067577	-0.117884	-0.117139	50.850446	-8.234035	-0.424467	20.092494	5.609944	-29.977203	-51.169277	38.650218	17.200500	53.983445	65.981787	51.407948	6.998409	53.093799	40.684428	48.820750	-7.202897	54.945432	52.902968	36.724238	-16.742241	79.507115	66.858861
0.105000	-160.147433	-5.066637	-73.570646	-0.067328	-0.118786	-0.116689	50.010260	-8.211144	-0.109709	19.870097	5.130756	-29.629841	-50.666201	38.438833	17.188830	53.740857	65.957798	51.048422	7.003001	53.036010	40.569323	48.734207	-7.240722	54.937665	53.031311	36.091308	-16.622985	80.545576	66.722777
0.115000	-160.147433	-5.066637	-73.570646	-0.066960	-0.119542	-0.116389	49.376910	-8.176096	0.118759	19.716330	4.651310	-29.266993	-50.170175	38.008993	17.164745	53.550456	65.585823	50.570285	7.001850	52.971279	40.467699	48.588753	-7.264923	54.962554	53.169276	35.293693	-16.522756	81.419770	66.522189
0.125000	-160.147433	-5.066637	-73.570646	-0.066541	-0.119996	-0.116214	48.996156	-8.128519	0.299355	19.613098	4.124693	-28.902104	-49.698683	37.422986	17.140238	53.412911	65.100750	50.017388	6.994802	52.905750	40.406741	48.373135	-7.275736	54.992694	53.296877	34.425758	-16.455754	82.016347	66.338063
0.135000	-160.147433	-5.066637	-73.570646	-0.066136	-0.120149	-0.116102	48.841225	-8.064678	0.479168	19.531687	3.534539	-28.545211	-49.257393	36.774266	17.121238	53.326923	64.678162	49.440554	6.983544	52.848920	40.391148	48.077157	-7.276254	55.014850	53.390995	33.588966	-16.420578	82.331720	66.207016
0.145000	-160.147433	-5.066637	-73.570646	-0.065788	-0.120101	-0.115991	48.842112	-7.976065	0.689005	19.449240	2.886252	-28.205661	-48.849240	36.154513	17.108877	53.277596	64.402769	48.886177	6.969807	52.805564	40.404652	47.707086	-7.270680	55.025842	53.437351	32.862027	-16.407066	82.436157	66.123628
0.155000	-160.147433	-5.066637	-73.570646	-0.065509	-0.119981	-0.115843	48.920367	-7.852717	0.933278	19.359471	2.192832	-27.891732	-48.478475	35.626019	17.101245	53.237568	64.269316	48.386024	6.954672	52.772756	40.419546	47.291534	-7.262899	55.028002	53.433355	32.282707	-16.403185	82.424713	66.059036
0.165000	-160.147433	-5.066637	-73.570646	-0.065282	-0.119892	-0.115648	49.014154	-7.688818	1.194298	19.272393	1.464905	-27.607734	-48.148410	35.209460	17.095127	53.179431	64.209400	47.952875	6.938806	52.741508	40.408343	46.872048	-7.255686	55.026414	53.382757	31.846748	-16.399539	82.377824	65.981429
0.175000	-160.147433	-5.066637	-73.570646	-0.065079	-0.119889	-0.115422	49.088545	-7.486573	1.444744	19.204228	0.708900	-27.351316	-47.856261	34.888441	17.087516	53.089493	64.133789	47.582652	6.922864	52.700925	40.352795	46.485325	-7.250545	55.026448	53.289251	31.520672	-16.391083	82.341430	65.869074
0.185000	-160.147433	-5.066637	-73.570646	-0.064874	-0.119981	-0.115191	49.133375	-7.256407	1.660601	19.164329	-0.068142	-27.113946	-47.590250	34.626051	17.076768	52.973382	63.975523	47.261179	6.907471	52.642632	40.247602	46.149058	-7.247958	55.030659	53.154797	31.260134	-16.376723	82.326313	65.713936
0.195000	-160.147433	-5.066637	-73.570646	-0.064652	-0.120143	-0.114977	49.154349	-7.014283	1.828959	19.147272	-0.852050	-26.885295	-47.332174	34.385338	17.063175	52.850797	63.717531	46.972650	6.892872	52.564021	40.098570	45.858948	-7.247702	55.036740	52.982529	31.025520	-16.357846	82.320872	65.518871
0.205000	-160.147433	-5.066637	-73.570646	-0.064411	-0.120338	-0.114792	49.163331	-6.777997	1.949199	19.134528	-1.618849	-26.659040	-47.064547	34.145081	17.048757	52.743979	63.394805	46.706386	6.878714	52.469783	39.917440	45.596578	-7.249061	55.038613	52.780231	30.790384	-16.336750	82.308561	65.293331
0.215000	-160.147433	-5.066637	-73.570646	-0.064164	-0.120532	-0.114637	49.171692	-6.563830	2.029557	19.104142	-2.338825	-26.436125	-46.778213	33.905104	17.036319	52.667286	63.072956	46.459297	6.864338	52.371369	39.717051	45.342872	-7.250973	55.030303	52.560978	30.543004	-16.315630	82.280865	65.051381
0.225000	-160.147433	-5.066637	-73.570646	-0.063931	-0.120696	-0.114510	49.187430	-6.383941	2.082450	19.042552	-2.985846	-26.223190	-46.476427	33.680868	17.028087	52.622747	62.815569	46.233708	6.849463	52.283926	39.509403	45.091087	-7.252321	55.009281	52.340817	30.284079	-16.296184	82.240454	64.811768
0.235000	-160.147433	-5.066637	-73.570646	-0.063729	-0.120817	-0.114404	49.214928	-6.244205	2.121000	18.952013	-3.547025	-26.027677	-46.174171	33.491950	17.024557	52.602016	62.656760	46.032811	6.834739	52.220857	39.306154	44.854879	-7.252431	54.975897	52.135639	30.023605	-16.279534	82.195614	64.596254
0.245000	-160.147433	-5.066637	-73.570646	-0.063571	-0.120887	-0.114314	49.256024	-6.142441	2.157295	18.849655	-4.027439	-25.853592	-45.893964	33.350675	17.024206	52.592243	62.591032	45.856948	6.821601	52.187812	39.118652	44.668484	-7.251615	54.928882	51.958998	29.778323	-16.266068	82.151775	64.423338
0.255000	-160.147433	-5.066637	-73.570646	-0.063454	-0.120914	-0.114236	49.311483	-6.067938	2.201584	18.758494	-4.447156	-25.700636	-45.659339	33.255706	17.024263	52.582556	62.582055	45.702666	6.811395	52.179252	38.955448	44.576984	-7.251334	54.861218	51.820809	29.568977	-16.255211	82.106366	64.299387
0.265000	-160.147433	-5.066637	-73.570646	-0.063367	-0.120912	-0.114164	49.381903	-6.003634	2.261361	18.694964	-4.831881	-25.566084	-45.486367	33.192385	17.022105	52.568055	62.582366	45.564161	6.804380	52.180347	38.818499	44.617158	-7.253627	54.761432	51.725908	29.415422	-16.245426	82.050130	64.213035
0.275000	-160.147433	-5.066637	-73.570646	-0.063294	-0.120899	-0.114093	49.467432	-5.931077	2.340007	18.660077	-5.201879	-25.447036	-45.375549	33.138764	17.016502	52.549711	62.553375	45.435320	6.799384	52.174245	38.701557	44.795187	-7.259903	54.621248	51.672095	29.329147	-16.234785	81.973777	64.137756
0.285000	-160.147433	-5.066637	-73.570646	-0.063220	-0.120893	-0.114017	49.566564	-5.836340	2.435411	18.640015	-5.564777	-25.341641	-45.309784	33.074156	17.008103	52.531063	62.478726	45.311078	6.794290	52.150917	38.593060	45.073650	-7.269793	54.444542	51.648785	29.306657	-16.222003	81.875420	64.042689
